<?xml version="1.0" standalone="no"?>
<!DOCTYPE svg PUBLIC "-//W3C//DTD SVG 20010904//EN"
 "http://www.w3.org/TR/2001/REC-SVG-20010904/DTD/svg10.dtd">
<svg version="1.0" xmlns="http://www.w3.org/2000/svg"
 width="207.000000pt" height="207.000000pt" viewBox="0 0 207.000000 207.000000"
 preserveAspectRatio="xMidYMid meet">
<metadata>
Created by potrace 1.11, written by Peter Selinger 2001-2013
</metadata>
<g transform="translate(0.000000,207.000000) scale(0.100000,-0.100000)"
fill="#000000" stroke="none">
<path d="M810 1891 c-164 -36 -289 -97 -392 -190 -29 -26 -78 -59 -110 -74
-69 -34 -160 -128 -206 -215 -69 -129 -106 -373 -72 -477 15 -47 54 -93 84
-97 19 -3 22 -12 28 -98 10 -125 24 -192 58 -265 68 -150 202 -237 440 -287
122 -25 496 -36 659 -19 294 31 488 127 566 281 41 80 54 133 67 267 10 102
15 123 28 123 24 0 66 49 80 95 34 104 -3 348 -72 477 -44 84 -137 181 -203
213 -29 15 -63 38 -76 52 -72 77 -238 168 -374 204 -117 31 -386 36 -505 10z
m475 -65 c199 -54 385 -176 385 -251 0 -48 57 -427 75 -496 22 -82 59 -155
102 -201 l35 -36 -7 -89 c-18 -231 -65 -328 -199 -415 -126 -82 -324 -118
-639 -118 -372 0 -573 49 -701 170 -87 82 -135 221 -136 396 0 63 3 73 26 95
34 32 79 121 99 198 18 70 75 448 75 498 0 28 9 40 68 86 116 93 205 136 352
168 108 24 370 21 465 -5z"/>
<path d="M532 1308 c-37 -37 3 -68 87 -68 81 0 107 14 97 53 -6 27 -8 27 -89
27 -51 0 -88 -5 -95 -12z"/>
<path d="M1346 1304 c-17 -45 10 -64 94 -64 84 0 111 19 94 64 -9 23 -179 23
-188 0z"/>
<path d="M532 1166 c-122 -40 -202 -151 -202 -281 0 -158 111 -278 270 -292
l58 -6 -24 -45 c-46 -86 -25 -165 57 -219 36 -24 53 -28 110 -28 51 0 72 -4
87 -18 67 -61 207 -62 287 -2 25 18 39 22 81 18 38 -4 60 0 91 16 57 28 101
76 108 115 7 37 -7 102 -29 131 -22 29 -20 35 17 35 19 0 55 6 81 14 177 53
259 244 176 412 -80 162 -280 213 -432 108 -81 -57 -135 -178 -122 -276 l7
-48 -120 0 -119 0 0 78 c0 88 -20 144 -73 205 -68 77 -210 115 -309 83z m194
-74 c82 -42 127 -116 127 -207 0 -171 -174 -283 -328 -211 -95 44 -139 120
-133 228 3 55 9 75 33 109 36 50 67 75 121 95 50 18 129 12 180 -14z m821 -1
c78 -39 123 -115 123 -206 0 -99 -44 -168 -135 -211 -86 -41 -175 -28 -249 38
-167 146 -51 420 170 404 28 -3 69 -13 91 -25z"/>
<path d="M534 1061 c-108 -49 -144 -192 -74 -290 43 -59 98 -84 176 -79 76 5
126 38 162 108 84 165 -92 339 -264 261z"/>
<path d="M1355 1063 c-103 -54 -142 -165 -92 -263 35 -70 85 -103 161 -108 49
-3 71 0 103 17 116 58 148 204 66 301 -55 65 -167 91 -238 53z"/>
</g>
</svg>
